<?xml version="1.0" encoding="UTF-8"?>
<svg xmlns="http://www.w3.org/2000/svg" xmlns:xlink="http://www.w3.org/1999/xlink" width="20px" height="20px" viewBox="0 0 20 20" version="1.1">
<g id="surface1">
<path style="fill-rule:nonzero;fill:rgb(100%,100%,100%);fill-opacity:1;stroke-width:1;stroke-linecap:butt;stroke-linejoin:miter;stroke:rgb(100%,100%,100%);stroke-opacity:1;stroke-miterlimit:4;" d="M 135.898425 41.431678 C 143.65504 41.431678 151.348594 44.647835 156.83498 50.827903 C 167.114072 62.431295 166.105082 80.151693 154.501689 90.430785 L 143.339731 100.331505 L 269.84193 100.331505 C 285.355161 100.331505 297.904482 112.880826 297.904482 128.394057 C 297.904482 143.844226 285.355161 156.393547 269.84193 156.393547 L 204.25754 156.393547 C 206.780016 160.618695 208.23044 165.474463 208.23044 170.708601 C 208.23044 182.564241 200.789134 192.717209 190.320857 196.816234 C 193.095581 201.167506 194.735191 206.338583 194.735191 211.888031 C 194.735191 225.572467 184.897532 236.986673 171.906778 239.383026 C 174.30313 243.545112 175.690493 248.274756 175.690493 253.382771 C 175.690493 268.83294 163.141172 281.382261 147.627941 281.382261 L 78.953516 281.445322 C 49.125231 281.445322 24.972518 254.454823 24.972518 221.221195 L 24.972518 160.997067 C 24.972518 142.961359 36.386724 121.961742 48.43155 109.664669 L 117.29516 48.494612 C 122.655423 43.764968 129.276924 41.431678 135.898425 41.431678 M 135.898425 16.45916 C 122.907671 16.45916 110.421412 21.188803 100.709877 29.828285 L 31.846267 90.998342 C 31.404833 91.376713 30.9634 91.755085 30.585028 92.196518 C 22.450041 100.457629 15.071797 111.115093 9.648473 122.340113 C 3.342281 135.456991 0 148.826117 0 160.997067 L 0 221.221195 C 0 243.418988 7.882739 264.481668 22.197794 280.499394 C 37.143467 297.210801 57.32328 306.41784 78.953516 306.41784 L 147.691003 306.41784 C 176.888669 306.41784 200.663011 282.643499 200.663011 253.382771 C 200.663011 253.130523 200.663011 252.878275 200.663011 252.626028 C 212.392527 242.788369 219.770771 228.031881 219.770771 211.888031 C 219.770771 209.996174 219.644647 208.167378 219.455461 206.275521 C 220.968947 204.635911 222.356309 202.870178 223.680609 200.97832 C 227.842696 195.0505 230.680482 188.428999 232.130906 181.429127 L 269.84193 181.429127 C 299.102658 181.429127 322.877 157.654785 322.877 128.394057 C 322.877 99.133329 299.102658 75.358987 269.84193 75.358987 L 188.618185 75.358987 C 188.681247 74.476121 188.807371 73.530192 188.870433 72.584263 C 189.690237 58.458394 184.960594 44.837021 175.564369 34.242619 C 165.474463 22.954537 151.033284 16.45916 135.898425 16.45916 Z M 135.898425 16.45916 " transform="matrix(0.0619431,0,0,0.0619431,0,0)"/>
</g>
</svg>
