<?xml version="1.0" encoding="UTF-8"?>
<svg xmlns="http://www.w3.org/2000/svg" xmlns:xlink="http://www.w3.org/1999/xlink" width="20px" height="20px" viewBox="0 0 20 20" version="1.1">
<g id="surface1">
<path style="fill-rule:nonzero;fill:rgb(100%,100%,100%);fill-opacity:1;stroke-width:1;stroke-linecap:butt;stroke-linejoin:miter;stroke:rgb(100%,100%,100%);stroke-opacity:1;stroke-miterlimit:4;" d="M 199.609375 25.019531 C 208.974609 25.019531 218.544922 31.376953 221.416016 46.142578 C 231.669922 99.326172 206.787109 139.111328 206.787109 139.111328 L 260.722656 139.111328 C 276.650391 139.111328 290.527344 152.03125 290.527344 167.890625 C 290.527344 183.818359 279.658203 196.669922 269.267578 196.669922 C 271.865234 200.976562 273.300781 205.966797 273.300781 211.298828 C 273.300781 223.535156 265.712891 233.925781 254.980469 238.164062 C 257.851562 242.607422 259.492188 247.871094 259.492188 253.613281 C 259.492188 267.695312 249.443359 279.384766 236.113281 281.845703 C 238.574219 286.083984 239.941406 291.005859 239.941406 296.201172 C 239.941406 312.060547 227.089844 324.980469 211.162109 324.980469 L 180.673828 324.980469 C 90.371094 324.980469 107.324219 293.671875 59.472656 293.671875 L 59.472656 175 C 90.097656 175 116.689453 173.359375 143.349609 131.181641 C 162.011719 101.650391 174.042969 83.125 179.033203 43.134766 C 180.46875 31.787109 189.902344 25.019531 199.609375 25.019531 M 199.609375 0 C 188.876953 0 178.417969 3.759766 170.214844 10.595703 C 161.396484 17.978516 155.722656 28.4375 154.21875 40.058594 C 149.980469 73.964844 140.341797 89.140625 122.910156 116.689453 L 122.226562 117.851562 C 101.855469 149.980469 85.927734 149.980469 59.472656 149.980469 C 45.664062 149.980469 34.521484 161.191406 34.521484 175 L 34.521484 293.671875 C 34.521484 307.480469 45.664062 318.691406 59.472656 318.691406 C 72.324219 318.691406 76.220703 321.152344 84.765625 326.689453 C 92.080078 331.40625 102.128906 337.832031 117.783203 342.548828 C 134.326172 347.539062 154.902344 350 180.673828 350 L 211.230469 350 C 240.830078 350 264.960938 325.869141 264.960938 296.201172 C 264.960938 295.859375 264.960938 295.449219 264.960938 295.107422 C 276.992188 285.126953 284.511719 270.087891 284.511719 253.613281 C 284.511719 251.630859 284.443359 249.648438 284.169922 247.666016 C 285.810547 245.888672 287.314453 244.042969 288.681641 242.060547 C 294.970703 233.037109 298.320312 222.373047 298.320312 211.367188 C 298.320312 210.683594 298.320312 210.068359 298.320312 209.384766 C 308.710938 199.472656 315.478516 184.433594 315.478516 167.890625 C 315.478516 153.398438 309.599609 139.726562 298.798828 129.472656 C 288.476562 119.560547 274.941406 114.160156 260.722656 114.160156 L 243.496094 114.160156 C 249.716797 90.234375 250.537109 65.214844 245.957031 41.425781 C 243.564453 29.052734 237.890625 18.59375 229.414062 11.210938 C 221.142578 3.964844 210.546875 0 199.609375 0 Z M 199.609375 0 " transform="matrix(0.0571429,0,0,0.0571429,0,0)"/>
</g>
</svg>
